<?xml version="1.0" encoding="UTF-8"?>
<svg id="Layer_2" data-name="Layer 2" xmlns="http://www.w3.org/2000/svg" xmlns:xlink="http://www.w3.org/1999/xlink" viewBox="0 0 409.49 58.21">
  <defs>
    <style>
      .cls-1 {
        fill: #f4f3ed;
      }
    </style>
  </defs>
  <g id="Layer_1-2" data-name="Layer 1">
    <g>
      <g id="tagline">
        <path id="tagline_CompoundPathItem_" data-name="tagline &amp;lt;CompoundPathItem&amp;gt;" class="cls-1" d="m57.91,58.21c-2.01,0-4.2-.22-6.05-1.1l.32-1.07c1.64.81,3.73,1.08,5.72,1.08,2.52,0,5.54-.5,5.54-2.54,0-1.48-1.69-1.86-5.3-2.18-3.84-.33-6.2-.88-6.2-3.16s3.05-3.23,6.77-3.23c1.98,0,4.01.24,5.57.93l-.3,1.07c-1.59-.69-3.39-.91-5.27-.91-2.07,0-5.52.26-5.52,2.06,0,1.32,1.42,1.75,5.01,2.08,3.76.31,6.47.77,6.47,3.21,0,2.99-3.59,3.76-6.77,3.76Z"/>
        <path id="tagline_CompoundPathItem_-2" data-name="tagline &amp;lt;CompoundPathItem&amp;gt;" class="cls-1" d="m82.42,57.9v-11.58h1.22v11.58h-1.22Zm10.36,0l-8.45-5.77v-.07l8.55-5.74h1.85l-8.57,5.77,8.57,5.81h-1.95Z"/>
        <path id="tagline_CompoundPathItem_-3" data-name="tagline &amp;lt;CompoundPathItem&amp;gt;" class="cls-1" d="m112.27,57.9v-11.58h1.22v11.58h-1.22Z"/>
        <path id="tagline_CompoundPathItem_-4" data-name="tagline &amp;lt;CompoundPathItem&amp;gt;" class="cls-1" d="m145.43,58.19h-.15l-12.21-9.78v9.49h-1.22v-11.88h.15l12.21,9.8v-9.5h1.22v11.88Z"/>
        <path id="tagline_CompoundPathItem_-5" data-name="tagline &amp;lt;CompoundPathItem&amp;gt;" class="cls-1" d="m183.01,57.9v-11.58h1.22v10.5h10.77v1.08h-11.99Z"/>
        <path id="tagline_CompoundPathItem_-6" data-name="tagline &amp;lt;CompoundPathItem&amp;gt;" class="cls-1" d="m217.59,58.21c-3.86,0-7.38-1.82-7.38-6.1s3.51-6.1,7.38-6.1,7.38,1.84,7.38,6.1-3.51,6.1-7.38,6.1Zm0-11.17c-3.39,0-6.08,1.63-6.08,5.07s2.69,5.07,6.08,5.07c3.37.02,6.08-1.6,6.08-5.07s-2.71-5.07-6.08-5.07Z"/>
        <path id="tagline_CompoundPathItem_-7" data-name="tagline &amp;lt;CompoundPathItem&amp;gt;" class="cls-1" d="m255.96,53.57c0,3.59-3.78,4.64-6.76,4.64s-6.74-1.05-6.74-4.64v-7.25h1.22v7.08c0,2.78,2.91,3.78,5.52,3.78,2.62.02,5.54-1,5.54-3.78v-7.08h1.22v7.25Z"/>
        <path id="tagline_CompoundPathItem_-8" data-name="tagline &amp;lt;CompoundPathItem&amp;gt;" class="cls-1" d="m287.79,58.19h-.15l-12.21-9.78v9.49h-1.22v-11.88h.15l12.21,9.8v-9.5h1.22v11.88Z"/>
        <path id="tagline_CompoundPathItem_-9" data-name="tagline &amp;lt;CompoundPathItem&amp;gt;" class="cls-1" d="m312.95,58.21c-3.89,0-7.64-1.77-7.64-6.1s3.95-6.1,7.64-6.1c2.22,0,4.22.34,5.96,1.19l-.31,1.05c-1.61-.72-3.52-1.15-5.55-1.15-3.52,0-6.43,1.55-6.43,5.04s3,5,6.42,5c1.56,0,3.15-.21,4.59-.77v-3.88h1.22v4.59c-1.73.79-3.69,1.15-5.89,1.15Z"/>
        <path id="tagline_CompoundPathItem_-10" data-name="tagline &amp;lt;CompoundPathItem&amp;gt;" class="cls-1" d="m337.02,57.9v-11.58h12.01v1.08h-10.79v3.47h10.79v1.07h-10.79v4.88h10.79v1.08h-12.01Z"/>
      </g>
      <g id="type">
        <path id="type_CompoundPathItem_" data-name="type &amp;lt;CompoundPathItem&amp;gt;" class="cls-1" d="m28.25,31.89L15.76.23h-4.48l1.39,3.45L0,31.89h2.41l4.6-10.22c.44-.2.9-.33,1.36-.37.54-.04.95.03,2.18.32,1.05.25,1.82.45,2.42.6l.22.06c2.56.66,3.08.73,3.53.77.3.02.58.03.85.03.79,0,1.42-.08,1.85-.16.29-.05.57-.13.85-.21l3.59,9.18h4.39Zm-8.58-10.66c-.18.05-.36.1-.54.13-.68.13-1.49.17-2.29.11-.28-.02-.64-.05-3.26-.72l-.22-.06c-.6-.16-1.39-.36-2.45-.61-1.29-.31-1.9-.42-2.68-.36-.13.01-.25.03-.38.05l5.95-13.23,5.86,14.68Z"/>
        <a xlink:href="79.7">
          <path id="type_PathItem_" data-name="type &amp;lt;PathItem&amp;gt;" class="cls-1" d="m69.84,29.29c-.74.59-1.53,1.04-2.37,1.36-.84.32-1.76.53-2.76.63-1,.11-2.08.16-3.26.16h-6.56V14.05h9.22v-1.58h-9.22V.68h4.84c1.21,0,2.31.05,3.3.16,1,.11,1.91.32,2.76.66.84.33,1.63.79,2.35,1.38.72.59,1.43,1.35,2.13,2.28V.23h-19.41v31.66h21.12v-4.93c-.69.97-1.41,1.74-2.15,2.33Z"/>
        </a>
        <path id="type_CompoundPathItem_-2" data-name="type &amp;lt;CompoundPathItem&amp;gt;" class="cls-1" d="m120.52,6.83c-1.09-1.36-2.4-2.5-3.94-3.44-1.54-.93-3.17-1.64-4.91-2.13-1.73-.48-3.51-.7-5.31-.66-1.81.05-3.53.37-5.16.97-.87.33-1.7.74-2.47,1.22-.77.48-1.35,1.04-1.74,1.67-.39.63-.52,1.33-.38,2.08.14.75.66,1.57,1.56,2.44.97.88,2.36,1.73,4.18,2.58,1.82.84,4.14,1.61,6.94,2.31,1.12.3,2.36.68,3.73,1.13,1.37.45,2.67,1.03,3.89,1.74,1.22.71,2.28,1.56,3.17,2.56.89,1,1.42,2.19,1.61,3.57.12.94.01,1.79-.32,2.58-.33.78-.81,1.51-1.42,2.17-.62.66-1.34,1.25-2.17,1.76-.83.51-1.7.97-2.6,1.36-1.42.6-3.02,1-4.82,1.2-1.79.2-3.61.23-5.45.11-1.84-.12-3.62-.36-5.34-.72-1.72-.36-3.23-.81-4.52-1.36v-5.79c1.24,1.93,2.69,3.46,4.37,4.59s3.42,1.92,5.25,2.35c1.82.44,3.66.57,5.5.38,1.84-.18,3.53-.62,5.07-1.31,1.18-.51,2.11-1.21,2.8-2.08.69-.87,1.04-1.93,1.04-3.17,0-1.02-.35-1.91-1.04-2.65-.69-.74-1.62-1.39-2.78-1.94-1.16-.56-2.47-1.05-3.94-1.47-1.46-.42-2.96-.84-4.48-1.27-1.52-.42-3.02-.87-4.48-1.33-1.46-.47-2.77-1.02-3.94-1.65-1.16-.63-2.09-1.39-2.78-2.26-.69-.87-1.04-1.91-1.04-3.12,0-2.47,1.01-4.54,3.03-6.2.66-.57,1.41-1.05,2.24-1.45.83-.39,1.7-.71,2.62-.95.92-.24,1.85-.41,2.8-.52.95-.11,1.86-.16,2.74-.16,2.11,0,3.94.13,5.5.38,1.55.26,2.85.54,3.89.86,1.04.32,2.07.75,3.1,1.29v4.3Z"/>
        <path id="type_CompoundPathItem_-3" data-name="type &amp;lt;CompoundPathItem&amp;gt;" class="cls-1" d="m174.67.23v4.93c-.69-.93-1.42-1.7-2.17-2.28-.75-.59-1.55-1.05-2.4-1.38-.84-.33-1.76-.55-2.76-.66-1-.11-2.08-.16-3.26-.16h-3.08v31.21h-4.16V.68h-3.03c-1.18,0-2.26.05-3.26.16-1,.11-1.92.32-2.76.66-.84.33-1.64.79-2.4,1.38-.75.59-1.48,1.35-2.17,2.28V.23h31.44Z"/>
        <path id="type_CompoundPathItem_-4" data-name="type &amp;lt;CompoundPathItem&amp;gt;" class="cls-1" d="m220.13.23v14.73c-.73.23-1.49.41-2.26.52-.67.09-1.76.19-3.15.11-.4-.02-.88-.05-4.39-.73l-.28-.06c-.79-.16-1.83-.36-3.24-.61-1.7-.31-2.43-.42-3.41-.36-.66.04-1.31.16-1.94.34V.23h-4.17v31.66h4.17V15.85c.66-.24,1.34-.39,2.05-.43.8-.06,1.43.04,3.03.32,1.39.25,2.43.46,3.22.61l.28.06c3.35.65,4.02.73,4.6.76.36.02.73.03,1.09.03.82,0,1.62-.06,2.36-.16.7-.1,1.38-.26,2.04-.44v15.29h4.17V.23h-4.17Z"/>
        <a xlink:href="79.7">
          <path id="type_PathItem_-2" data-name="type &amp;lt;PathItem&amp;gt;" class="cls-1" d="m268.14,29.29c-.74.59-1.53,1.04-2.37,1.36-.84.32-1.76.53-2.76.63-1,.11-2.08.16-3.26.16h-6.56V13.93h9.18v-1.58h-9.18V.68h4.84c1.21,0,2.31.05,3.3.16,1,.11,1.91.32,2.76.66.84.33,1.63.79,2.35,1.38.72.59,1.43,1.35,2.13,2.28V.23h-19.41v31.66h21.12v-4.93c-.69.97-1.41,1.74-2.15,2.33Z"/>
        </a>
        <path id="type_CompoundPathItem_-5" data-name="type &amp;lt;CompoundPathItem&amp;gt;" class="cls-1" d="m322.08.23v4.93c-.69-.93-1.42-1.7-2.17-2.28-.75-.59-1.55-1.05-2.4-1.38-.84-.33-1.76-.55-2.76-.66-1-.11-2.08-.16-3.26-.16h-3.08v31.21h-4.16V.68h-3.03c-1.18,0-2.26.05-3.26.16-1,.11-1.92.32-2.76.66-.85.33-1.64.79-2.4,1.38-.75.59-1.48,1.35-2.17,2.28V.23h31.44Z"/>
        <path id="type_CompoundPathItem_-6" data-name="type &amp;lt;CompoundPathItem&amp;gt;" class="cls-1" d="m344.7.23h4.12v31.66h-4.12V.23Z"/>
        <a xlink:href="79.7">
          <path id="type_PathItem_-3" data-name="type &amp;lt;PathItem&amp;gt;" class="cls-1" d="m392.26,15.21l12.13,16.68h5.1l-13.84-19.03c1.31-.91,1.79-1.26,2.57-1.94,1.22-1.05,3.27-2.81,5.19-5.55.98-1.39,1.83-2.9,2.55-4.48.09-.22.19-.43.28-.66h-1.72c-.66,1.49-1.47,2.92-2.4,4.23-1.82,2.58-3.69,4.2-4.94,5.27-.74.63-1.15.95-2.45,1.85L386.46.23h-5.08l9.95,13.69c-.25.17-.51.36-.78.55-.85.59-1.57,1.09-2.19,1.53L376.88.23h-5.09l13.21,18.17c-.29.22-.51.4-.7.55-.09.08-.21.18-.37.32-.86.74-3.48,2.97-5.74,6.17-1.38,1.96-2.54,4.13-3.42,6.46h1.7c.81-1.99,1.82-3.85,3.02-5.55,2.14-3.04,4.56-5.11,5.47-5.88.14-.13.26-.22.35-.29.17-.14.36-.3.62-.5l8.89,12.22h5.08l-10.63-14.62c.62-.43,1.33-.92,2.17-1.5.28-.2.55-.39.81-.56Z"/>
        </a>
      </g>
    </g>
  </g>
</svg>